<svg width="24" height="24" viewBox="0 0 24 24" fill="none" xmlns="http://www.w3.org/2000/svg">
<path opacity="0.4" d="M16.9841 2H7C4.25397 2 2 4.25397 2 7.01587V17C2 19.746 4.25397 22 7 22H16.9841C19.746 22 22 19.746 22 16.9841V7.01587C22 4.25397 19.746 2 16.9841 2Z" fill="#637381"/>
<path fill-rule="evenodd" clip-rule="evenodd" d="M8.67537 14.3768C8.12188 13.8116 7.74646 13.0964 7.59569 12.3198C7.44368 11.5411 7.52174 10.7349 7.82034 9.99982C8.11638 9.26884 8.6218 8.64162 9.27313 8.19694C10.5946 7.29438 12.3344 7.29438 13.6558 8.19694C14.3072 8.64162 14.8126 9.26884 15.1086 9.99982C15.4073 10.7349 15.4853 11.5411 15.3333 12.3198C15.1825 13.0964 14.8071 13.8116 14.2536 14.3768C13.5206 15.129 12.5148 15.5532 11.4645 15.5532C10.4142 15.5532 9.4084 15.129 8.67537 14.3768Z" stroke="#637381" stroke-width="2" stroke-linecap="round" stroke-linejoin="round"/>
<path d="M11.4689 8.92987C11.2053 8.9578 11.0142 9.19415 11.0421 9.45777C11.0701 9.7214 11.3065 9.91245 11.5701 9.88452L11.4689 8.92987ZM12.6538 10.523C12.7571 10.7671 13.0388 10.8812 13.283 10.7779C13.5271 10.6745 13.6412 10.3928 13.5378 10.1487L12.6538 10.523ZM14.5 13.5C14.3124 13.3127 14.1594 13.7886 13.9721 13.9763C13.7848 14.1638 13.3124 14.3127 13.5 14.5L14.5 13.5ZM16.5 17.5C16.6876 17.6873 17.3127 17.6876 17.5 17.5C17.6873 17.3124 17.6876 16.6873 17.5 16.5L16.5 17.5ZM11.5701 9.88452C12.0325 9.83553 12.4725 10.0948 12.6538 10.523L13.5378 10.1487C13.1918 9.33123 12.3517 8.83633 11.4689 8.92987L11.5701 9.88452ZM13.5 14.5L16.5 17.5L17.5 16.5L14.5 13.5L13.5 14.5Z" fill="#637381"/>
</svg>
