<?xml version="1.0" standalone="no"?>
<!DOCTYPE svg PUBLIC "-//W3C//DTD SVG 20010904//EN"
 "http://www.w3.org/TR/2001/REC-SVG-20010904/DTD/svg10.dtd">
<svg version="1.0" xmlns="http://www.w3.org/2000/svg"
 width="379.000000pt" height="486.000000pt" viewBox="0 0 379.000000 486.000000"
 preserveAspectRatio="xMidYMid meet">
<metadata>
Created by potrace 1.16, written by Peter Selinger 2001-2019
</metadata>
<g transform="translate(0.000000,486.000000) scale(0.100000,-0.100000)"
fill="#000000" stroke="none">
<path d="M933 4695 c-29 -8 -76 -27 -105 -41 -59 -30 -163 -130 -192 -185 -13
-24 -33 -42 -65 -57 -64 -29 -118 -73 -164 -135 -31 -42 -47 -53 -76 -59 -66
-11 -129 -48 -180 -104 -67 -73 -86 -132 -76 -233 4 -42 7 -121 6 -176 -1 -62
4 -131 15 -180 9 -44 20 -112 23 -151 4 -40 17 -91 30 -118 l23 -47 -30 -67
c-42 -94 -56 -162 -56 -277 0 -114 13 -171 50 -215 29 -33 59 -38 103 -16 32
17 97 86 113 122 13 28 26 31 35 7 66 -196 232 -384 426 -484 31 -16 57 -31
57 -34 0 -3 -13 -26 -30 -53 -40 -66 -87 -180 -112 -271 -16 -60 -20 -106 -20
-217 l0 -141 -55 -44 c-145 -115 -223 -281 -223 -473 0 -118 15 -182 66 -286
50 -100 151 -201 255 -255 67 -34 79 -45 103 -91 55 -104 172 -224 219 -224
25 0 45 34 52 89 10 72 38 101 97 101 24 0 56 7 71 15 28 14 32 13 95 -24 271
-158 603 -200 897 -115 50 14 131 30 180 35 177 16 314 63 449 153 344 229
481 660 336 1058 -29 80 -30 84 -19 166 6 47 9 112 6 146 -4 56 -2 66 30 118
38 65 67 143 82 224 10 50 18 63 73 118 100 98 158 229 158 359 0 47 7 73 35
131 45 92 61 176 46 254 -23 119 -59 233 -89 282 -18 28 -32 53 -32 55 0 1 15
25 34 53 56 84 104 309 77 360 -16 30 -65 28 -116 -3 -60 -37 -89 -33 -139 19
-54 55 -76 62 -124 39 -30 -14 -45 -33 -77 -97 -37 -73 -40 -85 -43 -176 -4
-91 -5 -99 -26 -104 -43 -11 -117 -69 -156 -123 -36 -50 -59 -104 -74 -175 -4
-18 -21 -35 -58 -56 -64 -36 -150 -111 -177 -156 -18 -28 -30 -35 -78 -45 -31
-6 -59 -11 -63 -11 -4 0 3 21 16 48 56 117 72 281 40 416 -24 100 -87 215
-162 293 l-64 66 38 -7 c147 -25 292 -14 389 29 96 43 105 98 28 172 -92 87
-261 147 -416 146 l-96 -1 -32 85 c-45 117 -198 338 -277 398 -20 15 -73 43
-118 62 -216 92 -365 121 -538 102 -81 -9 -108 -8 -161 5 -77 19 -164 20 -234
1z m1606 -681 c102 -25 221 -86 269 -138 49 -53 52 -73 15 -110 -45 -45 -119
-61 -288 -61 -167 0 -205 10 -277 73 l-35 32 18 67 c11 37 19 80 19 94 0 23 7
30 43 42 56 20 156 21 236 1z m-921 -124 c78 -30 155 -35 235 -16 87 20 83 21
95 -12 12 -35 67 -99 91 -107 22 -7 80 -129 109 -230 55 -187 69 -451 33 -616
-63 -285 -227 -468 -499 -558 -264 -88 -494 -53 -641 97 -96 99 -132 184 -220
524 -22 87 -55 188 -72 225 -28 63 -30 73 -24 140 8 92 -8 170 -46 222 -16 23
-29 43 -29 47 0 3 24 2 53 -1 119 -15 265 40 354 133 l52 54 64 -16 c79 -20
117 -20 190 -1 66 17 119 48 168 99 19 19 34 35 34 36 0 0 24 -9 53 -20z
m1751 -109 c64 -68 109 -78 176 -36 78 48 102 28 90 -74 -16 -140 -65 -260
-115 -286 -39 -20 -72 -19 -176 6 -158 37 -178 58 -173 177 3 63 10 90 37 145
33 66 75 107 111 107 8 0 30 -17 50 -39z m-3134 -636 c49 -37 127 -65 182 -65
28 0 33 -3 33 -24 0 -33 -34 -140 -71 -222 -79 -175 -189 -251 -243 -168 -28
42 -48 160 -41 239 11 121 59 275 86 275 5 0 29 -16 54 -35z m910 -2414 c74
-33 157 -149 171 -239 5 -35 3 -44 -19 -66 -21 -21 -36 -26 -74 -26 -70 0
-100 -27 -116 -109 -7 -36 -19 -69 -28 -74 -24 -15 -70 21 -142 112 -93 117
-114 179 -83 240 25 48 203 182 241 181 5 0 28 -9 50 -19z"/>
</g>
</svg>
